<!DOCTYPE svg PUBLIC "-//W3C//DTD SVG 1.1//EN" "http://www.w3.org/Graphics/SVG/1.1/DTD/svg11.dtd">
<!-- Uploaded to: SVG Repo, www.svgrepo.com, Transformed by: SVG Repo Mixer Tools -->
<svg fill="#ec911d" height="800px" width="800px" version="1.1" id="Capa_1" xmlns="http://www.w3.org/2000/svg" xmlns:xlink="http://www.w3.org/1999/xlink" viewBox="0 0 457.508 457.508" xml:space="preserve">
<g id="SVGRepo_bgCarrier" stroke-width="0"/>
<g id="SVGRepo_tracerCarrier" stroke-linecap="round" stroke-linejoin="round"/>
<g id="SVGRepo_iconCarrier"> <g> <circle cx="204.986" cy="56.687" r="56.687"/> <path d="M389.136,381.719c-83.138-212.078-74.939-209.576-92.184-229.516c-11.745-13.582-27.162-20.76-44.583-20.76 c-41.048,0-53.831,0-94.768,0c-17.421,0-32.838,7.179-44.583,20.76c-14.331,16.572-15.878,28.237-44.935,109.236 c-3.408,9.5-1.308,20.104,5.463,27.587c6.771,7.483,17.112,10.631,26.905,8.187l102.047-25.469 c14.656-3.658,23.572-18.504,19.914-33.161c-3.658-14.657-18.508-23.575-33.161-19.915l-52.543,13.114 c3.087-8.76,5.803-16.536,8.144-23.314l39.398-9.833c25.721-6.422,51.775,9.227,58.195,34.948 c6.375,25.545-9.086,51.74-34.948,58.195c-110.56,27.594-102.736,25.711-105.644,26.208c-5.657,13.504-8.785,28.349-8.785,43.932 c0,16.908,3.689,30.729,10.289,41.903l-6.893,35.588c-0.863,4.453,0.311,9.058,3.196,12.558c2.885,3.501,7.185,5.543,11.721,5.543 c42.263,0,144.972,0,187.202,0c4.539,0,8.84-2.03,11.727-5.532c2.887-3.503,4.054-8.113,3.19-12.569l-6.893-35.588 c6.6-11.174,10.289-24.995,10.289-41.903c0-6.575-0.563-13.018-1.632-19.285c12.37,32.087,22.016,56.701,22.939,59.057 c5.518,14.072,21.397,20.991,35.449,15.479C387.72,411.654,394.651,395.782,389.136,381.719z M243.451,294.589 c9.706-9.854,25.563-9.974,35.417-0.268s9.974,25.563,0.268,35.417c-9.706,9.854-25.563,9.974-35.417,0.268 C233.865,320.3,233.745,304.443,243.451,294.589z M125.016,352.331c0.978-6.914,7.385-11.727,14.288-10.748l32.546,4.603 c5.321,0.752,9.585,4.787,10.63,10.059l2.598,13.097l20.614-20.928l-19.941-26.667c-4.181-5.592-3.038-13.515,2.554-17.696 c5.592-4.181,13.514-3.038,17.696,2.554l22.531,30.129c4.273,0.547,8.411,2.424,11.717,5.68c8.03,7.91,8.128,20.832,0.218,28.862 l-40.3,40.915c-12.115,12.3-33.369,4.859-34.86-12.573l-5.882-29.652l-23.661-3.346 C128.85,365.642,124.038,359.244,125.016,352.331z M282.772,280.735c-8.325-42.984-6.763-33.936-8.231-45.938 c7.388,20.238,16.206,43.694,24.897,66.526C294.694,293.808,289.091,286.901,282.772,280.735z"/> </g> </g>
</svg>